<?xml version="1.0" standalone="no"?>
<!DOCTYPE svg PUBLIC "-//W3C//DTD SVG 20010904//EN"
 "http://www.w3.org/TR/2001/REC-SVG-20010904/DTD/svg10.dtd">
<svg version="1.0" xmlns="http://www.w3.org/2000/svg"
 width="357.000000pt" height="345.000000pt" viewBox="0 0 357.000000 345.000000"
 preserveAspectRatio="xMidYMid meet">

<g transform="translate(0.000000,345.000000) scale(0.100000,-0.100000)"
fill="#000000" stroke="none">
<path d="M83 3429 c-30 -15 -48 -33 -62 -63 -21 -42 -21 -50 -21 -1641 0
-1594 0 -1599 21 -1641 15 -31 32 -48 63 -63 42 -21 47 -21 1701 -21 1654 0
1659 0 1701 21 31 15 48 32 63 63 21 42 21 47 21 1641 0 1594 0 1599 -21 1641
-15 31 -32 48 -63 63 -42 21 -47 21 -1702 21 l-1659 0 -42 -21z m1008 -513
c41 -17 74 -51 88 -89 6 -16 11 -101 11 -193 l0 -164 -305 0 -305 0 0 175 c0
150 3 180 17 203 47 72 77 81 284 82 130 0 185 -4 210 -14z m756 -6 c24 -10
51 -32 60 -48 21 -33 8 -35 251 33 120 34 137 36 170 26 65 -22 97 -57 117
-128 61 -216 74 -268 67 -274 -6 -5 -105 -33 -392 -109 -19 -5 -57 -15 -85
-23 -108 -31 -102 -33 -120 23 l-17 50 -281 2 -282 3 0 182 c0 205 3 216 81
260 36 21 51 23 214 23 151 0 181 -3 217 -20z m718 -552 c3 -13 10 -39 15 -58
5 -19 26 -96 45 -170 20 -74 42 -160 51 -190 8 -30 19 -71 24 -90 5 -19 18
-69 30 -110 105 -385 137 -516 131 -523 -4 -4 -50 -19 -102 -32 -52 -14 -119
-32 -149 -41 -30 -8 -71 -19 -90 -24 -19 -5 -66 -18 -105 -29 -38 -11 -84 -23
-102 -26 -37 -7 -26 -35 -123 325 -15 58 -42 157 -59 220 -40 145 -57 207 -75
273 -7 28 -28 106 -46 172 -51 188 -55 169 37 193 43 12 114 31 158 43 44 12
103 27 130 34 28 7 82 22 120 33 94 26 103 26 110 0z m-1387 -36 c10 -7 12
-135 10 -608 l-3 -599 -300 0 -300 0 -3 595 c-1 327 0 601 3 608 3 9 71 12
292 12 158 0 294 -4 301 -8z m750 -4 c19 -19 17 -1181 -2 -1197 -9 -8 -97 -11
-302 -9 l-289 3 -3 595 c-1 327 0 601 3 608 6 17 575 18 593 0z m1011 -1366
c18 -64 36 -127 41 -140 15 -34 12 -95 -5 -128 -22 -46 -55 -70 -115 -88 -30
-9 -102 -30 -160 -47 -216 -65 -276 -37 -327 152 -45 167 -54 212 -46 220 4 4
26 12 48 18 39 10 182 48 340 91 154 42 170 46 181 42 7 -2 26 -56 43 -120z
m-1008 11 c7 -17 9 -85 7 -173 -4 -171 -17 -211 -83 -247 -37 -21 -52 -23
-221 -23 -169 0 -184 1 -225 23 -72 38 -83 71 -87 266 -3 130 -1 165 9 172 8
5 143 9 302 9 l287 0 11 -27z m-746 -160 c-6 -144 -10 -173 -29 -207 -37 -67
-68 -76 -272 -76 -201 0 -239 10 -281 73 -22 31 -23 43 -23 205 l0 172 306 0
306 0 -7 -167z"/>
</g>
</svg>
